<svg xmlns="http://www.w3.org/2000/svg" xmlns:xlink="http://www.w3.org/1999/xlink" width="500" zoomAndPan="magnify" viewBox="0 0 375 374.999991" height="500" preserveAspectRatio="xMidYMid meet" version="1.2"><defs><clipPath id="f17bad1e66"><path d="M 106.539062 238.246094 L 268.539062 238.246094 L 268.539062 278.445312 L 106.539062 278.445312 Z M 106.539062 238.246094 "/></clipPath><clipPath id="3183a8b724"><path d="M 106.457031 96.546875 L 268.457031 96.546875 L 268.457031 136.75 L 106.457031 136.75 Z M 106.457031 96.546875 "/></clipPath></defs><g id="a37d09e9bc"><g style="fill:#ff8c42;fill-opacity:1;"><g transform="translate(54.384933, 214.0119)"><path style="stroke:none" d="M 23.390625 -45.5 C 28.429688 -45.5 32.367188 -43.960938 35.203125 -40.890625 C 38.046875 -37.828125 39.46875 -33.054688 39.46875 -26.578125 L 9.109375 -26.578125 L 9.03125 -28.203125 L 31.21875 -28.203125 C 31.332031 -31.015625 31.101562 -33.609375 30.53125 -35.984375 C 29.957031 -38.367188 29.050781 -40.273438 27.8125 -41.703125 C 26.582031 -43.140625 24.992188 -43.859375 23.046875 -43.859375 C 20.410156 -43.859375 18.070312 -42.539062 16.03125 -39.90625 C 14 -37.269531 12.785156 -33.082031 12.390625 -27.34375 L 12.640625 -27 C 12.523438 -26.144531 12.4375 -25.203125 12.375 -24.171875 C 12.320312 -23.140625 12.296875 -22.101562 12.296875 -21.0625 C 12.296875 -17.164062 12.925781 -13.8125 14.1875 -11 C 15.445312 -8.195312 17.09375 -6.0625 19.125 -4.59375 C 21.164062 -3.132812 23.273438 -2.40625 25.453125 -2.40625 C 27.171875 -2.40625 28.804688 -2.675781 30.359375 -3.21875 C 31.910156 -3.769531 33.34375 -4.675781 34.65625 -5.9375 C 35.976562 -7.195312 37.125 -8.890625 38.09375 -11.015625 L 39.8125 -10.3125 C 39.1875 -8.425781 38.15625 -6.59375 36.71875 -4.8125 C 35.289062 -3.039062 33.484375 -1.59375 31.296875 -0.46875 C 29.117188 0.644531 26.597656 1.203125 23.734375 1.203125 C 19.609375 1.203125 16.066406 0.257812 13.109375 -1.625 C 10.160156 -3.519531 7.894531 -6.144531 6.3125 -9.5 C 4.738281 -12.851562 3.953125 -16.707031 3.953125 -21.0625 C 3.953125 -26.113281 4.753906 -30.457031 6.359375 -34.09375 C 7.960938 -37.738281 10.226562 -40.550781 13.15625 -42.53125 C 16.082031 -44.507812 19.492188 -45.5 23.390625 -45.5 Z M 23.390625 -45.5 "/></g></g><g style="fill:#ff8c42;fill-opacity:1;"><g transform="translate(92.99495, 214.0119)"><path style="stroke:none" d="M 41.796875 -44.296875 L 41.796875 -42.5625 C 40.703125 -42.445312 39.695312 -41.957031 38.78125 -41.09375 C 37.863281 -40.238281 37.003906 -38.722656 36.203125 -36.546875 L 22.109375 0.4375 C 21.878906 0.4375 21.644531 0.4375 21.40625 0.4375 C 21.175781 0.4375 20.921875 0.4375 20.640625 0.4375 L 4.8125 -37.671875 C 3.894531 -39.898438 2.992188 -41.257812 2.109375 -41.75 C 1.222656 -42.238281 0.460938 -42.484375 -0.171875 -42.484375 L -0.171875 -44.296875 C 0.972656 -44.234375 2.160156 -44.160156 3.390625 -44.078125 C 4.628906 -43.992188 5.960938 -43.953125 7.390625 -43.953125 C 9.171875 -43.953125 11.050781 -43.976562 13.03125 -44.03125 C 15.007812 -44.09375 16.859375 -44.179688 18.578125 -44.296875 L 18.578125 -42.484375 C 17.140625 -42.484375 15.863281 -42.378906 14.75 -42.171875 C 13.632812 -41.972656 12.914062 -41.414062 12.59375 -40.5 C 12.28125 -39.582031 12.554688 -38.007812 13.421875 -35.78125 L 24.171875 -9.203125 L 23.65625 -8.765625 L 33.453125 -34.484375 C 34.203125 -36.378906 34.503906 -37.882812 34.359375 -39 C 34.210938 -40.113281 33.632812 -40.957031 32.625 -41.53125 C 31.625 -42.101562 30.09375 -42.445312 28.03125 -42.5625 L 28.03125 -44.296875 C 29.0625 -44.234375 29.945312 -44.1875 30.6875 -44.15625 C 31.4375 -44.132812 32.171875 -44.109375 32.890625 -44.078125 C 33.609375 -44.046875 34.398438 -44.03125 35.265625 -44.03125 C 36.578125 -44.03125 37.765625 -44.054688 38.828125 -44.109375 C 39.890625 -44.171875 40.878906 -44.234375 41.796875 -44.296875 Z M 41.796875 -44.296875 "/></g></g><g style="fill:#ff8c42;fill-opacity:1;"><g transform="translate(130.143099, 214.0119)"><path style="stroke:none" d="M 23.390625 -45.5 C 28.429688 -45.5 32.367188 -43.960938 35.203125 -40.890625 C 38.046875 -37.828125 39.46875 -33.054688 39.46875 -26.578125 L 9.109375 -26.578125 L 9.03125 -28.203125 L 31.21875 -28.203125 C 31.332031 -31.015625 31.101562 -33.609375 30.53125 -35.984375 C 29.957031 -38.367188 29.050781 -40.273438 27.8125 -41.703125 C 26.582031 -43.140625 24.992188 -43.859375 23.046875 -43.859375 C 20.410156 -43.859375 18.070312 -42.539062 16.03125 -39.90625 C 14 -37.269531 12.785156 -33.082031 12.390625 -27.34375 L 12.640625 -27 C 12.523438 -26.144531 12.4375 -25.203125 12.375 -24.171875 C 12.320312 -23.140625 12.296875 -22.101562 12.296875 -21.0625 C 12.296875 -17.164062 12.925781 -13.8125 14.1875 -11 C 15.445312 -8.195312 17.09375 -6.0625 19.125 -4.59375 C 21.164062 -3.132812 23.273438 -2.40625 25.453125 -2.40625 C 27.171875 -2.40625 28.804688 -2.675781 30.359375 -3.21875 C 31.910156 -3.769531 33.34375 -4.675781 34.65625 -5.9375 C 35.976562 -7.195312 37.125 -8.890625 38.09375 -11.015625 L 39.8125 -10.3125 C 39.1875 -8.425781 38.15625 -6.59375 36.71875 -4.8125 C 35.289062 -3.039062 33.484375 -1.59375 31.296875 -0.46875 C 29.117188 0.644531 26.597656 1.203125 23.734375 1.203125 C 19.609375 1.203125 16.066406 0.257812 13.109375 -1.625 C 10.160156 -3.519531 7.894531 -6.144531 6.3125 -9.5 C 4.738281 -12.851562 3.953125 -16.707031 3.953125 -21.0625 C 3.953125 -26.113281 4.753906 -30.457031 6.359375 -34.09375 C 7.960938 -37.738281 10.226562 -40.550781 13.15625 -42.53125 C 16.082031 -44.507812 19.492188 -45.5 23.390625 -45.5 Z M 23.390625 -45.5 "/></g></g><g style="fill:#ff8c42;fill-opacity:1;"><g transform="translate(168.753116, 214.0119)"><path style="stroke:none" d="M 31.390625 -45.5 C 33.566406 -45.5 35.382812 -45.210938 36.84375 -44.640625 C 38.3125 -44.066406 39.53125 -43.257812 40.5 -42.21875 C 41.59375 -41.070312 42.367188 -39.640625 42.828125 -37.921875 C 43.285156 -36.203125 43.515625 -33.878906 43.515625 -30.953125 L 43.515625 -8 C 43.515625 -5.59375 44.015625 -3.957031 45.015625 -3.09375 C 46.023438 -2.238281 47.703125 -1.8125 50.046875 -1.8125 L 50.046875 0 C 49.078125 -0.0625 47.585938 -0.132812 45.578125 -0.21875 C 43.566406 -0.300781 41.617188 -0.34375 39.734375 -0.34375 C 37.835938 -0.34375 35.984375 -0.300781 34.171875 -0.21875 C 32.367188 -0.132812 31.007812 -0.0625 30.09375 0 L 30.09375 -1.8125 C 32.164062 -1.8125 33.628906 -2.238281 34.484375 -3.09375 C 35.347656 -3.957031 35.78125 -5.59375 35.78125 -8 L 35.78125 -32.859375 C 35.78125 -34.628906 35.632812 -36.257812 35.34375 -37.75 C 35.0625 -39.238281 34.414062 -40.441406 33.40625 -41.359375 C 32.40625 -42.273438 30.875 -42.734375 28.8125 -42.734375 C 26.40625 -42.734375 24.296875 -42.046875 22.484375 -40.671875 C 20.679688 -39.296875 19.273438 -37.414062 18.265625 -35.03125 C 17.265625 -32.65625 16.765625 -30.007812 16.765625 -27.09375 L 16.765625 -8 C 16.765625 -5.59375 17.191406 -3.957031 18.046875 -3.09375 C 18.910156 -2.238281 20.378906 -1.8125 22.453125 -1.8125 L 22.453125 0 C 21.523438 -0.0625 20.160156 -0.132812 18.359375 -0.21875 C 16.554688 -0.300781 14.707031 -0.34375 12.8125 -0.34375 C 10.914062 -0.34375 8.960938 -0.300781 6.953125 -0.21875 C 4.953125 -0.132812 3.46875 -0.0625 2.5 0 L 2.5 -1.8125 C 4.84375 -1.8125 6.515625 -2.238281 7.515625 -3.09375 C 8.523438 -3.957031 9.03125 -5.59375 9.03125 -8 L 9.03125 -34.921875 C 9.03125 -37.492188 8.570312 -39.394531 7.65625 -40.625 C 6.738281 -41.863281 5.019531 -42.484375 2.5 -42.484375 L 2.5 -44.296875 C 4.332031 -44.117188 6.109375 -44.03125 7.828125 -44.03125 C 9.484375 -44.03125 11.070312 -44.128906 12.59375 -44.328125 C 14.113281 -44.535156 15.503906 -44.835938 16.765625 -45.234375 L 16.765625 -35.09375 C 18.253906 -38.988281 20.332031 -41.695312 23 -43.21875 C 25.664062 -44.738281 28.460938 -45.5 31.390625 -45.5 Z M 31.390625 -45.5 "/></g></g><g style="fill:#ff8c42;fill-opacity:1;"><g transform="translate(215.188419, 214.0119)"><path style="stroke:none" d="M 16.34375 -58.5625 L 16.34375 -44.203125 L 29.0625 -44.203125 L 29.0625 -42.484375 L 16.34375 -42.484375 L 16.34375 -9.203125 C 16.34375 -6.503906 16.828125 -4.609375 17.796875 -3.515625 C 18.773438 -2.429688 20.125 -1.890625 21.84375 -1.890625 C 23.5625 -1.890625 25.050781 -2.59375 26.3125 -4 C 27.570312 -5.40625 28.660156 -7.769531 29.578125 -11.09375 L 31.296875 -10.65625 C 30.722656 -7.332031 29.59375 -4.523438 27.90625 -2.234375 C 26.21875 0.0546875 23.625 1.203125 20.125 1.203125 C 18.175781 1.203125 16.570312 0.957031 15.3125 0.46875 C 14.050781 -0.0195312 12.929688 -0.722656 11.953125 -1.640625 C 10.691406 -2.953125 9.816406 -4.523438 9.328125 -6.359375 C 8.835938 -8.191406 8.59375 -10.628906 8.59375 -13.671875 L 8.59375 -42.484375 L 0.34375 -42.484375 L 0.34375 -44.203125 L 8.59375 -44.203125 L 8.59375 -57.359375 C 10.03125 -57.421875 11.40625 -57.535156 12.71875 -57.703125 C 14.039062 -57.878906 15.25 -58.164062 16.34375 -58.5625 Z M 16.34375 -58.5625 "/></g></g><g style="fill:#ff8c42;fill-opacity:1;"><g transform="translate(240.727637, 214.0119)"><path style="stroke:none" d="M 12.296875 -65.796875 C 13.785156 -65.796875 15.070312 -65.25 16.15625 -64.15625 C 17.25 -63.0625 17.796875 -61.769531 17.796875 -60.28125 C 17.796875 -58.789062 17.25 -57.5 16.15625 -56.40625 C 15.070312 -55.320312 13.785156 -54.78125 12.296875 -54.78125 C 10.804688 -54.78125 9.515625 -55.320312 8.421875 -56.40625 C 7.335938 -57.5 6.796875 -58.789062 6.796875 -60.28125 C 6.796875 -61.769531 7.335938 -63.0625 8.421875 -64.15625 C 9.515625 -65.25 10.804688 -65.796875 12.296875 -65.796875 Z M 16.765625 -45.234375 L 16.765625 -8 C 16.765625 -5.59375 17.265625 -3.957031 18.265625 -3.09375 C 19.273438 -2.238281 20.957031 -1.8125 23.3125 -1.8125 L 23.3125 0 C 22.332031 -0.0625 20.851562 -0.132812 18.875 -0.21875 C 16.894531 -0.300781 14.90625 -0.34375 12.90625 -0.34375 C 10.945312 -0.34375 8.960938 -0.300781 6.953125 -0.21875 C 4.953125 -0.132812 3.46875 -0.0625 2.5 0 L 2.5 -1.8125 C 4.84375 -1.8125 6.515625 -2.238281 7.515625 -3.09375 C 8.523438 -3.957031 9.03125 -5.59375 9.03125 -8 L 9.03125 -34.921875 C 9.03125 -37.492188 8.570312 -39.394531 7.65625 -40.625 C 6.738281 -41.863281 5.019531 -42.484375 2.5 -42.484375 L 2.5 -44.296875 C 4.332031 -44.117188 6.109375 -44.03125 7.828125 -44.03125 C 9.484375 -44.03125 11.070312 -44.128906 12.59375 -44.328125 C 14.113281 -44.535156 15.503906 -44.835938 16.765625 -45.234375 Z M 16.765625 -45.234375 "/></g></g><g style="fill:#ff8c42;fill-opacity:1;"><g transform="translate(261.021318, 214.0119)"><path style="stroke:none" d="M 14.703125 0.609375 C 12.359375 0.609375 10.320312 0.164062 8.59375 -0.71875 C 6.875 -1.613281 5.570312 -2.863281 4.6875 -4.46875 C 3.800781 -6.070312 3.359375 -7.9375 3.359375 -10.0625 C 3.359375 -12.582031 3.941406 -14.644531 5.109375 -16.25 C 6.285156 -17.851562 7.789062 -19.144531 9.625 -20.125 C 11.46875 -21.101562 13.40625 -21.921875 15.4375 -22.578125 C 17.46875 -23.234375 19.398438 -23.863281 21.234375 -24.46875 C 23.078125 -25.070312 24.582031 -25.773438 25.75 -26.578125 C 26.925781 -27.378906 27.515625 -28.4375 27.515625 -29.75 L 27.515625 -35.09375 C 27.515625 -37.5 27.15625 -39.332031 26.4375 -40.59375 C 25.726562 -41.851562 24.769531 -42.695312 23.5625 -43.125 C 22.363281 -43.5625 21.015625 -43.78125 19.515625 -43.78125 C 18.085938 -43.78125 16.554688 -43.578125 14.921875 -43.171875 C 13.285156 -42.765625 11.984375 -41.929688 11.015625 -40.671875 C 12.097656 -40.441406 13.039062 -39.867188 13.84375 -38.953125 C 14.644531 -38.035156 15.046875 -36.863281 15.046875 -35.4375 C 15.046875 -34 14.585938 -32.863281 13.671875 -32.03125 C 12.753906 -31.195312 11.578125 -30.78125 10.140625 -30.78125 C 8.484375 -30.78125 7.265625 -31.3125 6.484375 -32.375 C 5.710938 -33.4375 5.328125 -34.628906 5.328125 -35.953125 C 5.328125 -37.441406 5.695312 -38.644531 6.4375 -39.5625 C 7.1875 -40.476562 8.132812 -41.335938 9.28125 -42.140625 C 10.601562 -43.054688 12.3125 -43.84375 14.40625 -44.5 C 16.5 -45.164062 18.863281 -45.5 21.5 -45.5 C 23.851562 -45.5 25.859375 -45.222656 27.515625 -44.671875 C 29.179688 -44.128906 30.554688 -43.34375 31.640625 -42.3125 C 33.140625 -40.9375 34.117188 -39.257812 34.578125 -37.28125 C 35.035156 -35.300781 35.265625 -32.9375 35.265625 -30.1875 L 35.265625 -6.28125 C 35.265625 -4.84375 35.476562 -3.804688 35.90625 -3.171875 C 36.332031 -2.546875 37.003906 -2.234375 37.921875 -2.234375 C 38.554688 -2.234375 39.160156 -2.375 39.734375 -2.65625 C 40.304688 -2.945312 40.992188 -3.410156 41.796875 -4.046875 L 42.734375 -2.578125 C 41.535156 -1.660156 40.390625 -0.898438 39.296875 -0.296875 C 38.210938 0.304688 36.753906 0.609375 34.921875 0.609375 C 33.253906 0.609375 31.875 0.320312 30.78125 -0.25 C 29.695312 -0.832031 28.878906 -1.679688 28.328125 -2.796875 C 27.785156 -3.910156 27.515625 -5.328125 27.515625 -7.046875 C 25.972656 -4.472656 24.125 -2.550781 21.96875 -1.28125 C 19.820312 -0.0195312 17.398438 0.609375 14.703125 0.609375 Z M 17.796875 -2.84375 C 19.691406 -2.84375 21.457031 -3.382812 23.09375 -4.46875 C 24.726562 -5.5625 26.203125 -7.195312 27.515625 -9.375 L 27.515625 -26.234375 C 26.828125 -25.253906 25.820312 -24.4375 24.5 -23.78125 C 23.1875 -23.125 21.753906 -22.460938 20.203125 -21.796875 C 18.660156 -21.140625 17.1875 -20.363281 15.78125 -19.46875 C 14.375 -18.582031 13.210938 -17.421875 12.296875 -15.984375 C 11.378906 -14.554688 10.921875 -12.695312 10.921875 -10.40625 C 10.921875 -8.113281 11.535156 -6.28125 12.765625 -4.90625 C 14.003906 -3.53125 15.679688 -2.84375 17.796875 -2.84375 Z M 17.796875 -2.84375 "/></g></g><g style="fill:#ff8c42;fill-opacity:1;"><g transform="translate(298.943419, 214.0119)"><path style="stroke:none" d="M 10.84375 -9.796875 C 12.332031 -9.796875 13.617188 -9.25 14.703125 -8.15625 C 15.796875 -7.070312 16.34375 -5.785156 16.34375 -4.296875 C 16.34375 -2.804688 15.796875 -1.515625 14.703125 -0.421875 C 13.617188 0.660156 12.332031 1.203125 10.84375 1.203125 C 9.34375 1.203125 8.046875 0.660156 6.953125 -0.421875 C 5.867188 -1.515625 5.328125 -2.804688 5.328125 -4.296875 C 5.328125 -5.785156 5.867188 -7.070312 6.953125 -8.15625 C 8.046875 -9.25 9.34375 -9.796875 10.84375 -9.796875 Z M 10.84375 -9.796875 "/></g></g><g clip-rule="nonzero" clip-path="url(#f17bad1e66)"><path style=" stroke:none;fill-rule:nonzero;fill:#ff8c42;fill-opacity:1;" d="M 268.199219 278.320312 L 106.539062 278.320312 L 106.539062 128.425781 C 106.539062 83.835938 142.800781 47.574219 187.390625 47.574219 C 231.984375 47.574219 268.242188 83.835938 268.242188 128.425781 L 268.242188 278.320312 Z M 108.371094 276.488281 L 266.367188 276.488281 L 266.367188 128.425781 C 266.367188 84.839844 230.929688 49.40625 187.390625 49.40625 C 143.804688 49.40625 108.371094 84.839844 108.371094 128.425781 Z M 108.371094 276.488281 "/></g><g clip-rule="nonzero" clip-path="url(#3183a8b724)"><path style=" stroke:none;fill-rule:nonzero;fill:#ff8c42;fill-opacity:1;" d="M 106.796875 96.675781 L 268.457031 96.675781 L 268.457031 246.566406 C 268.457031 291.160156 232.199219 327.417969 187.605469 327.417969 C 143.011719 327.417969 106.753906 291.160156 106.753906 246.566406 L 106.753906 96.675781 Z M 266.625 98.503906 L 108.628906 98.503906 L 108.628906 246.566406 C 108.628906 290.152344 144.066406 325.589844 187.605469 325.589844 C 231.191406 325.589844 266.625 290.152344 266.625 246.566406 Z M 266.625 98.503906 "/></g></g></svg>